<?xml version="1.0" encoding="utf-8"?>
<!-- Generator: Adobe Illustrator 15.1.0, SVG Export Plug-In . SVG Version: 6.00 Build 0)  -->
<!DOCTYPE svg PUBLIC "-//W3C//DTD SVG 1.1//EN" "http://www.w3.org/Graphics/SVG/1.1/DTD/svg11.dtd">
<svg version="1.1" id="Layer_2" xmlns="http://www.w3.org/2000/svg" xmlns:xlink="http://www.w3.org/1999/xlink" x="0px" y="0px"
	 width="250px" height="250px" viewBox="0 0 250 250" enable-background="new 0 0 250 250" xml:space="preserve">
<g>
	<polygon fill="#9EEB87" points="125.456,158.1 125.379,123.868 154.926,107.052 154.926,141.084 	"/>
	<polygon fill="#7ECA66" points="95.986,107.052 125.379,123.868 125.456,158.1 95.986,141.084 	"/>
	<polygon fill="#65B14D" points="154.926,107.052 125.379,123.868 95.986,107.052 125.456,90.039 	"/>
	<polygon fill="#396E31" points="66.959,158.313 95.986,141.084 125.456,158.1 154.926,141.084 183.754,158.313 125.356,192.027 	
		"/>
	<polygon fill="#73A76B" points="66.959,158.313 95.986,141.084 95.986,107.052 125.456,90.039 125.356,57.165 66.959,90.882 	"/>
	<polygon fill="#54894A" points="183.754,158.313 154.926,141.084 154.926,107.052 125.456,90.039 125.356,57.165 183.754,90.882 	
		"/>
	<polygon fill="#79AF6B" points="125,244.831 125.356,192.027 183.754,158.313 183.754,90.882 228.775,65.083 228.775,184.917 	"/>
	<polygon fill="#53874A" points="21.225,65.083 66.959,90.882 66.959,158.313 125.356,192.027 125,244.831 21.225,184.917 	"/>
	<polygon fill="#396D30" points="228.775,65.083 183.754,90.882 125.356,57.165 66.959,90.882 21.225,65.083 125,5.169 	"/>
</g>
</svg>
